<svg xmlns="http://www.w3.org/2000/svg" xmlns:xlink="http://www.w3.org/1999/xlink" xmlns:lucid="lucid" width="1595" height="476"><g transform="translate(-2749 -1608)" lucid:page-tab-id="mJ1S~nfgx_aI"><path d="M3420 1640.85a6 6 0 0 1 6-6h884.52a6 6 0 0 1 6 6v408a6 6 0 0 1-6 6H3426a6 6 0 0 1-6-6z" fill-opacity="0"/><path d="M3440.07 1634.85h12.06m8.04 0h12.07m8.04 0h12.06m8.04 0h12.06m8.04 0h12.06m8.05 0h12.05m8.04 0h12.05m8.04 0h12.05m8.04 0h12.05m8.05 0h12.06m8.04 0h12.06m8.04 0h12.06m8.04 0h12.06m8.05 0h12.07m8.04 0h12.07m8.04 0h12.07m8.04 0h12.08m8.04 0h12.06m8.04 0h12.06m8.04 0h12.06m8.04 0h12.07m8.03 0h12.06m8.03 0h12.06m8.03 0h12.06m8.03 0h12.07m8.04 0h12.06m8.04 0h12.06m8.04 0h12.06m8.05 0H4015m8.05 0h12.06m8.05 0h12.06m8.05 0h12.07m8.04 0h12.06m8.04 0h12.06m8.04 0h12.06m8.04 0h12.07m8.04 0h12.06m8.04 0h12.06m8.04 0h12.06m8.04 0h12.07m8.04 0h12.06m8.04 0h12.06m8.04 0h12.06m8.05 0h6.02a6 6 0 0 1 6 6v6.12m0 8.16v12.24m0 8.16v12.24m0 8.16v12.24m0 8.16v12.24m0 8.16v12.24m0 8.16v12.24m0 8.16v12.24m0 8.16v12.24m0 8.16v12.24m0 8.16v12.24m0 8.16v12.24m0 8.16v12.24m0 8.16v12.24m0 8.16v12.24m0 8.16v12.24m0 8.16v12.24m0 8.16v12.24m0 8.16v12.24m0 8.16v12.24m0 8.16v6.12a6 6 0 0 1-6 6h-6.04m-8.04 0h-12.06m-8.04 0h-12.06m-8.04 0h-12.06m-8.04 0h-12.07m-8.04 0h-12.06m-8.04 0h-12.06m-8.04 0h-12.06m-8.05 0h-12.06m-8.04 0h-12.06m-8.04 0h-12.06m-8.04 0h-12.06m-8.05 0h-12.05m-8.04 0h-12.05m-8.04 0h-12.05m-8.04 0h-12.05m-8.05 0h-12.06m-8.04 0h-12.06m-8.04 0h-12.06m-8.04 0h-12.07m-8.04 0h-12.07m-8.04 0h-12.07m-8.04 0h-12.07m-8.04 0h-12.08m-8.04 0h-12.06m-8.04 0h-12.06m-8.04 0h-12.06m-8.05 0h-12.06m-8.03 0h-12.06m-8.03 0h-12.06m-8.03 0h-12.06m-8.04 0h-12.06m-8.04 0h-12.06m-8.04 0h-12.06m-8.04 0H3621m-8.05 0h-12.06m-8.05 0h-12.06m-8.05 0h-12.06m-8.05 0h-12.07m-8.04 0h-12.06m-8.04 0h-12.06m-8.04 0h-12.06m-8.04 0h-12.07m-8.04 0h-12.06m-8.04 0H3426a6 6 0 0 1-6-6v-6.12m0-8.16v-12.24m0-8.16v-12.24m0-8.16v-12.24m0-8.16v-12.24m0-8.16v-12.24m0-8.16v-12.24m0-8.16v-12.24m0-8.16v-12.24m0-8.16v-12.24m0-8.16v-12.24m0-8.16v-12.24m0-8.16v-12.24m0-8.16v-12.24m0-8.16v-12.24m0-8.16v-12.24m0-8.16v-12.24m0-8.16v-12.24m0-8.16v-12.24m0-8.16v-12.24m0-8.16v-6.12a6 6 0 0 1 6-6h6.03" stroke="#8572b4" stroke-width="4" fill="none"/><use xlink:href="#a" transform="matrix(1,0,0,1,3432,1646.8491741029839) translate(337.5036892361111 21.52777777777778)"/><use xlink:href="#b" transform="matrix(1,0,0,1,3432,1646.8491741029839) translate(464.17469618055554 21.52777777777778)"/><path d="M3496.52 1882.85a6 6 0 0 1 6-6h204.24a6 6 0 0 1 6 6v124.96a6 6 0 0 1-6 6h-204.24a6 6 0 0 1-6-6z" stroke="#000" stroke-width="2" fill="#f7f4e4"/><use xlink:href="#c" transform="matrix(1,0,0,1,3501.515674573985,1881.8491741029839) translate(31.11501736111113 37.40277777777778)"/><use xlink:href="#d" transform="matrix(1,0,0,1,3501.515674573985,1881.8491741029839) translate(26.44921875 69.66840277777777)"/><use xlink:href="#e" transform="matrix(1,0,0,1,3501.515674573985,1881.8491741029839) translate(130.1818576388889 69.66840277777777)"/><use xlink:href="#f" transform="matrix(1,0,0,1,3501.515674573985,1881.8491741029839) translate(17.611328125 101.93402777777777)"/><use xlink:href="#g" transform="matrix(1,0,0,1,3501.515674573985,1881.8491741029839) translate(112.46809895833334 101.93402777777777)"/><path d="M3496.52 1708.78a6 6 0 0 1 6-6h204.24a6 6 0 0 1 6 6v124.96a6 6 0 0 1-6 6h-204.24a6 6 0 0 1-6-6z" stroke="#000" stroke-width="2" fill="#f7f4e4"/><use xlink:href="#h" transform="matrix(1,0,0,1,3501.515674573985,1707.7775772583418) translate(61.81163194444445 37.40277777777778)"/><use xlink:href="#i" transform="matrix(1,0,0,1,3501.515674573985,1707.7775772583418) translate(44.11957465277777 69.66840277777777)"/><use xlink:href="#j" transform="matrix(1,0,0,1,3501.515674573985,1707.7775772583418) translate(13.450086805555557 101.93402777777777)"/><use xlink:href="#k" transform="matrix(1,0,0,1,3501.515674573985,1707.7775772583418) translate(116.62934027777777 101.93402777777777)"/><path d="M3714.26 1771.26h82.13" stroke="#3a414a" fill="none"/><path d="M3714.28 1771.73h-.52v-.95h.52z" stroke="#3a414a" stroke-width=".05" fill="#3a414a"/><path d="M3811.15 1771.26l-14.26 4.63v-9.28z" stroke="#3a414a" fill="#3a414a"/><path d="M3978 1771.26h41.13" stroke="#3a414a" fill="none"/><path d="M3978.03 1771.73h-.52v-.95h.53z" stroke="#3a414a" stroke-width=".05" fill="#3a414a"/><path d="M4033.9 1771.26l-14.27 4.63v-9.28z" stroke="#3a414a" fill="#3a414a"/><path d="M4036.52 1708.78a6 6 0 0 1 6-6h204.24a6 6 0 0 1 6 6v124.96a6 6 0 0 1-6 6h-204.24a6 6 0 0 1-6-6z" stroke="#000" stroke-width="2" fill="#f7f4e4"/><use xlink:href="#l" transform="matrix(1,0,0,1,4041.515674573985,1707.7775772583418) translate(61.80620659722222 57.24652777777778)"/><use xlink:href="#m" transform="matrix(1,0,0,1,4041.515674573985,1707.7775772583418) translate(41.54253472222223 89.51215277777777)"/><path d="M3714.26 1945.33h276.26a6 6 0 0 0 6-6v-162.07a6 6 0 0 1 6-6h16.6" stroke="#3a414a" fill="none"/><path d="M3714.28 1945.8h-.52v-.95h.52z" stroke="#3a414a" stroke-width=".05" fill="#3a414a"/><path d="M4033.9 1771.26l-14.27 4.63v-9.28z" stroke="#3a414a" fill="#3a414a"/><path d="M3259.02 1848.37h191.5a6 6 0 0 1 6 6v91.98a6 6 0 0 0 6 6h16.6M3259.03 1848.37h-.5" stroke="#3a414a" fill="none"/><path d="M3493.9 1952.35l-14.27 4.63v-9.27z" stroke="#3a414a" fill="#3a414a"/><path d="M3714.26 1945.33h304.87" stroke="#3a414a" fill="none"/><path d="M3714.28 1945.8h-.52v-.95h.52z" stroke="#3a414a" stroke-width=".05" fill="#3a414a"/><path d="M4033.9 1945.33l-14.27 4.63v-9.27z" stroke="#3a414a" fill="#3a414a"/><path d="M4036.52 1882.85a6 6 0 0 1 6-6h204.24a6 6 0 0 1 6 6v124.96a6 6 0 0 1-6 6h-204.24a6 6 0 0 1-6-6z" stroke="#000" stroke-width="2" fill="#f7f4e4"/><use xlink:href="#a" transform="matrix(1,0,0,1,4041.5156745739855,1881.8491741029839) translate(1.8344184027777857 37.40277777777778)"/><use xlink:href="#n" transform="matrix(1,0,0,1,4041.5156745739855,1881.8491741029839) translate(128.50542534722223 37.40277777777778)"/><use xlink:href="#o" transform="matrix(1,0,0,1,4041.5156745739855,1881.8491741029839) translate(12.533203125 69.66840277777777)"/><use xlink:href="#p" transform="matrix(1,0,0,1,4041.5156745739855,1881.8491741029839) translate(76.92122395833333 69.66840277777777)"/><use xlink:href="#q" transform="matrix(1,0,0,1,4041.5156745739855,1881.8491741029839) translate(113.52061631944444 69.66840277777777)"/><use xlink:href="#r" transform="matrix(1,0,0,1,4041.5156745739855,1881.8491741029839) translate(43.218967013888886 101.93402777777777)"/><use xlink:href="#s" transform="matrix(1,0,0,1,4041.5156745739855,1881.8491741029839) translate(128.28841145833331 101.93402777777777)"/><path d="M2776.52 1706a6 6 0 0 1 6-6h468a6 6 0 0 1 6 6v291.04a6 6 0 0 1-6 6h-468a6 6 0 0 1-6-6z" stroke="#8572b4" stroke-width="4" fill="#8572b4"/><use xlink:href="#t" transform="matrix(1,0,0,1,2788.515674573985,1712) translate(113.58485243055556 21.52777777777778)"/><use xlink:href="#u" transform="matrix(1,0,0,1,2788.515674573985,1712) translate(201.03059895833331 21.52777777777778)"/><use xlink:href="#v" transform="matrix(1,0,0,1,2788.515674573985,1712) translate(314.48546006944446 21.52777777777778)"/><path d="M2894.24 1766a6 6 0 0 1 6-6h222.55a6 6 0 0 1 6 6v53.33a6 6 0 0 1-6 6h-222.56a6 6 0 0 1-6-6z" stroke="#000" stroke-width="2" fill="#f7f4e4"/><use xlink:href="#w" transform="matrix(1,0,0,1,2899.240669707532,1764.9999999999998) translate(25.14105902777777 35.52777777777778)"/><use xlink:href="#x" transform="matrix(1,0,0,1,2899.240669707532,1764.9999999999998) translate(112.58680555555554 35.52777777777778)"/><path d="M2916.52 1866a6 6 0 0 1 6-6h178a6 6 0 0 1 6 6v108a6 6 0 0 1-6 6h-178a6 6 0 0 1-6-6z" stroke="#000" stroke-width="2" fill="#f7f4e4"/><g><use xlink:href="#y" transform="matrix(1,0,0,1,2921.515674573985,1865) translate(6.162977430555557 63.15277777777778)"/><use xlink:href="#z" transform="matrix(1,0,0,1,2921.515674573985,1865) translate(78.51540798611111 63.15277777777778)"/></g><path d="M3011.52 1826.83v15.8" stroke="#3a414a" fill="none"/><path d="M3012 1826.85h-.96v-.52h.95z" stroke="#3a414a" stroke-width=".05" fill="#3a414a"/><path d="M3011.52 1857.38l-4.64-14.27 9.27.02z" stroke="#3a414a" fill="#3a414a"/><path d="M3259.02 1848.37h191.5a6 6 0 0 0 6-6v-58.52a6 6 0 0 1 6-6h16.6M3259.03 1848.37h-.5" stroke="#3a414a" fill="none"/><path d="M3493.9 1777.85l-14.27 4.63v-9.27z" stroke="#3a414a" fill="#3a414a"/><path d="M3240 1822.18a6 6 0 0 1 6-6h200.47a6 6 0 0 1 6 6v71.15a6 6 0 0 1-6 6H3246a6 6 0 0 1-6-6z" fill="none"/><g><use xlink:href="#A" transform="matrix(1,0,0,1,3245,1821.1827157696505) translate(66.26128472222223 17.654513888888893)"/><use xlink:href="#B" transform="matrix(1,0,0,1,3245,1821.1827157696505) translate(51.092013888888886 43.467013888888886)"/><use xlink:href="#C" transform="matrix(1,0,0,1,3245,1821.1827157696505) translate(78.83506944444444 43.467013888888886)"/><use xlink:href="#D" transform="matrix(1,0,0,1,3245,1821.1827157696505) translate(52.784722222222214 69.27951388888889)"/><use xlink:href="#E" transform="matrix(1,0,0,1,3245,1821.1827157696505) translate(86.03125 69.27951388888889)"/></g><path d="M3756.52 1918.85a6 6 0 0 1 6-6h200.46a6 6 0 0 1 6 6v45.33a6 6 0 0 1-6 6h-200.46a6 6 0 0 1-6-6z" fill="none"/><g><use xlink:href="#F" transform="matrix(1,0,0,1,3761.515674573985,1917.8491741029839) translate(65.08506944444443 17.560763888888893)"/><use xlink:href="#G" transform="matrix(1,0,0,1,3761.515674573985,1917.8491741029839) translate(13.184027777777771 43.373263888888886)"/><use xlink:href="#H" transform="matrix(1,0,0,1,3761.515674573985,1917.8491741029839) translate(25.05902777777777 43.373263888888886)"/><use xlink:href="#I" transform="matrix(1,0,0,1,3761.515674573985,1917.8491741029839) translate(92.38541666666667 43.373263888888886)"/><use xlink:href="#J" transform="matrix(1,0,0,1,3761.515674573985,1917.8491741029839) translate(125.63194444444446 43.373263888888886)"/></g><path d="M3696.52 1748.6a6 6 0 0 1 6-6h111.75a6 6 0 0 1 6 6v45.32a6 6 0 0 1-6 6h-111.75a6 6 0 0 1-6-6z" fill="none"/><g><use xlink:href="#K" transform="matrix(1,0,0,1,3701.515674573985,1747.5908117717538) translate(32.36024305555556 17.560763888888893)"/><use xlink:href="#L" transform="matrix(1,0,0,1,3701.515674573985,1747.5908117717538) translate(35.732638888888886 43.373263888888886)"/></g><path d="M3976.52 1805.5c0 4.72-36.44 8.55-81.38 8.55s-81.37-3.83-81.37-8.56V1737c0-4.73 36.43-8.56 81.37-8.56 44.94 0 81.38 3.83 81.38 8.56z" stroke="#000" stroke-width="2" fill="#f7f4e4"/><path d="M3976.52 1737.02c0 4.73-36.44 8.56-81.38 8.56s-81.37-3.83-81.37-8.56" stroke="#000" stroke-width="2" fill="none"/><g><use xlink:href="#M" transform="matrix(1,0,0,1,3818.7667073043185,1750.5796989057183) translate(7.408203125 36.27777777777778)"/></g><defs><path d="M180 0v-1490h190c0 262 1 526-3 784 217-279 467-523 702-784h249L716-845 1319 0h-225L585-716 370-489V0H180" id="N"/><path d="M537 14c-226 0-379-139-379-422v-710h180v695c0 172 97 275 253 275 160 0 281-109 281-300v-670h181V0H879v-209C806-46 684 14 537 14" id="O"/><path d="M677 24c-213 0-288-135-325-197h-20V0H158v-1490h180v551h14c37-59 106-193 324-193 279 0 474 222 474 576 0 356-194 580-473 580zm-27-161c209 0 317-186 317-421 0-232-105-413-317-413-206 0-314 166-314 413 0 249 111 421 314 421" id="P"/><path d="M628 24c-324 0-524-230-524-574 0-343 198-582 503-582 237 0 487 146 487 559v75H286c9 234 145 362 343 362 132 0 231-58 273-172l174 48C1024-91 857 24 628 24zM287-650h624c-17-190-120-322-304-322-192 0-309 151-320 322" id="Q"/><path d="M158 0v-1118h174v172h12c41-113 157-188 290-188 26 0 70 2 91 3v181c-11-2-60-10-108-10-161 0-279 109-279 260V0H158" id="R"/><path d="M338-670V0H158v-1118h173l1 207c72-158 192-221 342-221 226 0 378 139 378 422V0H872v-695c0-172-96-275-252-275-161 0-282 109-282 300" id="S"/><path d="M598-1118v154H368v674c0 100 37 144 132 144 23 0 62-6 92-12L629-6c-37 13-88 20-134 20-193 0-307-107-307-290v-688H20v-154h168v-266h180v266h230" id="T"/><path d="M538 24C308 24 148-78 108-271l171-41c32 123 123 178 257 178 156 0 256-77 256-169 0-77-54-128-164-154l-186-44c-203-48-300-148-300-305 0-192 176-326 414-326 230 0 351 112 402 269l-163 42c-31-80-94-158-238-158-133 0-233 69-233 162 0 83 57 129 188 160l169 40c203 48 298 149 298 302 0 196-179 339-441 339" id="U"/><g id="a"><use transform="matrix(0.010850694444444444,0,0,0.010850694444444444,0,0)" xlink:href="#N"/><use transform="matrix(0.010850694444444444,0,0,0.010850694444444444,14.181857638888888,0)" xlink:href="#O"/><use transform="matrix(0.010850694444444444,0,0,0.010850694444444444,27.32204861111111,0)" xlink:href="#P"/><use transform="matrix(0.010850694444444444,0,0,0.010850694444444444,40.92881944444444,0)" xlink:href="#Q"/><use transform="matrix(0.010850694444444444,0,0,0.010850694444444444,53.88454861111111,0)" xlink:href="#R"/><use transform="matrix(0.010850694444444444,0,0,0.010850694444444444,62.59765625,0)" xlink:href="#S"/><use transform="matrix(0.010850694444444444,0,0,0.010850694444444444,75.72699652777777,0)" xlink:href="#Q"/><use transform="matrix(0.010850694444444444,0,0,0.010850694444444444,88.68272569444444,0)" xlink:href="#T"/><use transform="matrix(0.010850694444444444,0,0,0.010850694444444444,95.73567708333333,0)" xlink:href="#Q"/><use transform="matrix(0.010850694444444444,0,0,0.010850694444444444,108.69140625,0)" xlink:href="#U"/></g><path d="M613 24c-304 0-509-231-509-576 0-350 205-580 509-580 216 0 392 114 453 309l-173 49c-33-115-133-197-280-197-223 0-326 196-326 419 0 220 103 415 326 415 150 0 252-85 285-206l172 49C1010-95 832 24 613 24" id="V"/><path d="M338-1490V0H158v-1490h180" id="W"/><g id="b"><use transform="matrix(0.010850694444444444,0,0,0.010850694444444444,0,0)" xlink:href="#V"/><use transform="matrix(0.010850694444444444,0,0,0.010850694444444444,12.6953125,0)" xlink:href="#W"/><use transform="matrix(0.010850694444444444,0,0,0.010850694444444444,18.077256944444443,0)" xlink:href="#O"/><use transform="matrix(0.010850694444444444,0,0,0.010850694444444444,31.217447916666664,0)" xlink:href="#U"/><use transform="matrix(0.010850694444444444,0,0,0.010850694444444444,42.94704861111111,0)" xlink:href="#T"/><use transform="matrix(0.010850694444444444,0,0,0.010850694444444444,50,0)" xlink:href="#Q"/><use transform="matrix(0.010850694444444444,0,0,0.010850694444444444,62.955729166666664,0)" xlink:href="#R"/></g><path d="M577 24c-279 0-473-224-473-580 0-354 195-576 474-576 218 0 287 134 324 193h14v-551h180V0H922v-173h-20C865-111 790 24 577 24zm27-161c203 0 314-172 314-421 0-247-108-413-314-413-212 0-317 181-317 413 0 235 108 421 317 421" id="X"/><path d="M471 26C259 26 90-98 90-318c0-256 228-303 435-329 202-27 287-16 287-108 0-139-79-219-234-219-161 0-248 86-283 164l-173-57c86-203 278-265 451-265 150 0 419 46 419 395V0H815v-152h-12C765-73 660 26 471 26zm31-159c199 0 310-134 310-271v-155c-30 35-226 55-295 64-131 17-246 59-246 186 0 116 97 176 231 176" id="Y"/><path d="M798-719v166H144v-166h654" id="Z"/><path d="M65 0l393-574-370-544h210c88 136 192 297 267 435 67-142 176-302 264-435h206L661-564 1053 0H844c-94-144-206-310-287-458C484-308 366-142 273 0H65" id="aa"/><path d="M158 418v-1536h174v179h20c37-59 106-193 324-193 279 0 474 222 474 576 0 356-194 580-473 580-213 0-288-135-325-197h-14v591H158zm492-555c209 0 317-186 317-421 0-232-105-413-317-413-206 0-314 166-314 413 0 249 111 421 314 421" id="ab"/><path d="M613 24c-304 0-509-231-509-576 0-350 205-580 509-580 305 0 511 230 511 580 0 345-206 576-511 576zm0-161c226 0 329-195 329-415 0-222-103-419-329-419-223 0-326 196-326 419 0 220 103 415 326 415" id="ac"/><g id="c"><use transform="matrix(0.010850694444444444,0,0,0.010850694444444444,0,0)" xlink:href="#X"/><use transform="matrix(0.010850694444444444,0,0,0.010850694444444444,13.606770833333332,0)" xlink:href="#Y"/><use transform="matrix(0.010850694444444444,0,0,0.010850694444444444,26.085069444444443,0)" xlink:href="#T"/><use transform="matrix(0.010850694444444444,0,0,0.010850694444444444,33.463541666666664,0)" xlink:href="#Y"/><use transform="matrix(0.010850694444444444,0,0,0.010850694444444444,45.94184027777778,0)" xlink:href="#Z"/><use transform="matrix(0.010850694444444444,0,0,0.010850694444444444,56.163194444444436,0)" xlink:href="#Q"/><use transform="matrix(0.010850694444444444,0,0,0.010850694444444444,68.61979166666666,0)" xlink:href="#aa"/><use transform="matrix(0.010850694444444444,0,0,0.010850694444444444,80.75086805555554,0)" xlink:href="#ab"/><use transform="matrix(0.010850694444444444,0,0,0.010850694444444444,94.35763888888887,0)" xlink:href="#ac"/><use transform="matrix(0.010850694444444444,0,0,0.010850694444444444,107.68229166666664,0)" xlink:href="#R"/><use transform="matrix(0.010850694444444444,0,0,0.010850694444444444,116.39539930555556,0)" xlink:href="#T"/><use transform="matrix(0.010850694444444444,0,0,0.010850694444444444,123.44835069444441,0)" xlink:href="#Q"/><use transform="matrix(0.010850694444444444,0,0,0.010850694444444444,136.4040798611111,0)" xlink:href="#R"/></g><path d="M158 0v-1118h175l1 205c55-151 181-225 313-225 147 0 245 90 285 228 53-141 190-228 352-228 194 0 352 125 352 384V0h-181v-749c0-161-105-225-225-225-151 0-243 103-243 244V0H807v-767c0-124-93-207-219-207-131 0-250 92-250 270V0H158" id="ad"/><path d="M140 405l46-156c120 36 205 19 263-150l32-93L54-1118h197c107 313 237 620 324 950 87-331 219-637 326-950h196L606 167c-68 178-176 259-334 259-64 0-113-12-132-21" id="ae"/><g id="d"><use transform="matrix(0.010850694444444444,0,0,0.010850694444444444,0,0)" xlink:href="#U"/><use transform="matrix(0.010850694444444444,0,0,0.010850694444444444,11.729600694444445,0)" xlink:href="#O"/><use transform="matrix(0.010850694444444444,0,0,0.010850694444444444,24.869791666666664,0)" xlink:href="#ad"/><use transform="matrix(0.010850694444444444,0,0,0.010850694444444444,44.3359375,0)" xlink:href="#ad"/><use transform="matrix(0.010850694444444444,0,0,0.010850694444444444,63.80208333333333,0)" xlink:href="#Y"/><use transform="matrix(0.010850694444444444,0,0,0.010850694444444444,76.28038194444444,0)" xlink:href="#R"/><use transform="matrix(0.010850694444444444,0,0,0.010850694444444444,84.99348958333334,0)" xlink:href="#ae"/></g><g id="e"><use transform="matrix(0.010850694444444444,0,0,0.010850694444444444,0,0)" xlink:href="#U"/><use transform="matrix(0.010850694444444444,0,0,0.010850694444444444,11.729600694444445,0)" xlink:href="#T"/><use transform="matrix(0.010850694444444444,0,0,0.010850694444444444,19.108072916666668,0)" xlink:href="#Y"/><use transform="matrix(0.010850694444444444,0,0,0.010850694444444444,31.586371527777775,0)" xlink:href="#T"/><use transform="matrix(0.010850694444444444,0,0,0.010850694444444444,38.639322916666664,0)" xlink:href="#U"/></g><g id="f"><use transform="matrix(0.010850694444444444,0,0,0.010850694444444444,0,0)" xlink:href="#Q"/><use transform="matrix(0.010850694444444444,0,0,0.010850694444444444,12.456597222222221,0)" xlink:href="#aa"/><use transform="matrix(0.010850694444444444,0,0,0.010850694444444444,24.58767361111111,0)" xlink:href="#ab"/><use transform="matrix(0.010850694444444444,0,0,0.010850694444444444,38.19444444444444,0)" xlink:href="#ac"/><use transform="matrix(0.010850694444444444,0,0,0.010850694444444444,51.51909722222222,0)" xlink:href="#R"/><use transform="matrix(0.010850694444444444,0,0,0.010850694444444444,60.23220486111111,0)" xlink:href="#T"/><use transform="matrix(0.010850694444444444,0,0,0.010850694444444444,67.28515625,0)" xlink:href="#Q"/><use transform="matrix(0.010850694444444444,0,0,0.010850694444444444,80.24088541666667,0)" xlink:href="#R"/></g><path d="M481 0L54-1118h197c107 314 236 620 325 951 87-331 217-637 324-951h197L670 0H481" id="af"/><path d="M158 0v-1118h180V0H158zm91-1301c-68 0-125-53-125-119s57-119 125-119c69 0 126 53 126 119s-57 119-126 119" id="ag"/><g id="g"><use transform="matrix(0.010850694444444444,0,0,0.010850694444444444,0,0)" xlink:href="#U"/><use transform="matrix(0.010850694444444444,0,0,0.010850694444444444,11.729600694444445,0)" xlink:href="#Q"/><use transform="matrix(0.010850694444444444,0,0,0.010850694444444444,24.68532986111111,0)" xlink:href="#R"/><use transform="matrix(0.010850694444444444,0,0,0.010850694444444444,33.3984375,0)" xlink:href="#af"/><use transform="matrix(0.010850694444444444,0,0,0.010850694444444444,45.88758680555556,0)" xlink:href="#ag"/><use transform="matrix(0.010850694444444444,0,0,0.010850694444444444,51.26953125,0)" xlink:href="#V"/><use transform="matrix(0.010850694444444444,0,0,0.010850694444444444,63.96484375,0)" xlink:href="#Q"/></g><g id="h"><use transform="matrix(0.010850694444444444,0,0,0.010850694444444444,0,0)" xlink:href="#X"/><use transform="matrix(0.010850694444444444,0,0,0.010850694444444444,13.606770833333332,0)" xlink:href="#Y"/><use transform="matrix(0.010850694444444444,0,0,0.010850694444444444,26.085069444444443,0)" xlink:href="#T"/><use transform="matrix(0.010850694444444444,0,0,0.010850694444444444,33.463541666666664,0)" xlink:href="#Y"/><use transform="matrix(0.010850694444444444,0,0,0.010850694444444444,45.94184027777778,0)" xlink:href="#Z"/><use transform="matrix(0.010850694444444444,0,0,0.010850694444444444,56.163194444444436,0)" xlink:href="#X"/><use transform="matrix(0.010850694444444444,0,0,0.010850694444444444,69.76996527777777,0)" xlink:href="#P"/></g><g id="i"><use transform="matrix(0.010850694444444444,0,0,0.010850694444444444,0,0)" xlink:href="#T"/><use transform="matrix(0.010850694444444444,0,0,0.010850694444444444,7.269965277777778,0)" xlink:href="#ag"/><use transform="matrix(0.010850694444444444,0,0,0.010850694444444444,12.651909722222221,0)" xlink:href="#ad"/><use transform="matrix(0.010850694444444444,0,0,0.010850694444444444,32.11805555555556,0)" xlink:href="#Q"/><use transform="matrix(0.010850694444444444,0,0,0.010850694444444444,45.07378472222222,0)" xlink:href="#Z"/><use transform="matrix(0.010850694444444444,0,0,0.010850694444444444,55.295138888888886,0)" xlink:href="#U"/><use transform="matrix(0.010850694444444444,0,0,0.010850694444444444,67.02473958333333,0)" xlink:href="#Q"/><use transform="matrix(0.010850694444444444,0,0,0.010850694444444444,79.98046875,0)" xlink:href="#R"/><use transform="matrix(0.010850694444444444,0,0,0.010850694444444444,88.6935763888889,0)" xlink:href="#ag"/><use transform="matrix(0.010850694444444444,0,0,0.010850694444444444,94.07552083333334,0)" xlink:href="#Q"/><use transform="matrix(0.010850694444444444,0,0,0.010850694444444444,107.03125000000001,0)" xlink:href="#U"/></g><g id="j"><use transform="matrix(0.010850694444444444,0,0,0.010850694444444444,0,0)" xlink:href="#X"/><use transform="matrix(0.010850694444444444,0,0,0.010850694444444444,13.606770833333332,0)" xlink:href="#Y"/><use transform="matrix(0.010850694444444444,0,0,0.010850694444444444,26.085069444444443,0)" xlink:href="#T"/><use transform="matrix(0.010850694444444444,0,0,0.010850694444444444,33.463541666666664,0)" xlink:href="#Y"/><use transform="matrix(0.010850694444444444,0,0,0.010850694444444444,45.94184027777778,0)" xlink:href="#P"/><use transform="matrix(0.010850694444444444,0,0,0.010850694444444444,59.765624999999986,0)" xlink:href="#Y"/><use transform="matrix(0.010850694444444444,0,0,0.010850694444444444,72.2439236111111,0)" xlink:href="#U"/><use transform="matrix(0.010850694444444444,0,0,0.010850694444444444,83.97352430555554,0)" xlink:href="#Q"/></g><g id="k"><use transform="matrix(0.010850694444444444,0,0,0.010850694444444444,0,0)" xlink:href="#U"/><use transform="matrix(0.010850694444444444,0,0,0.010850694444444444,11.729600694444445,0)" xlink:href="#Q"/><use transform="matrix(0.010850694444444444,0,0,0.010850694444444444,24.68532986111111,0)" xlink:href="#R"/><use transform="matrix(0.010850694444444444,0,0,0.010850694444444444,33.3984375,0)" xlink:href="#af"/><use transform="matrix(0.010850694444444444,0,0,0.010850694444444444,45.88758680555556,0)" xlink:href="#ag"/><use transform="matrix(0.010850694444444444,0,0,0.010850694444444444,51.26953125,0)" xlink:href="#V"/><use transform="matrix(0.010850694444444444,0,0,0.010850694444444444,63.96484375,0)" xlink:href="#Q"/></g><path d="M789 20c-398 0-667-293-667-764 0-473 273-766 655-766 315 0 558 198 612 487h-196c-61-191-204-311-415-311-262 0-471 207-471 590 0 380 208 588 482 588 249 0 420-165 425-427H828v-166h572v163c0 370-256 606-611 606" id="ah"/><path d="M678-1118v154H420V0H240v-964H20v-154h220v-149c0-194 155-293 318-293 85 0 141 18 168 30l-50 154c-19-6-47-17-97-17-111 0-159 58-159 166v109h258" id="ai"/><g id="l"><use transform="matrix(0.010850694444444444,0,0,0.010850694444444444,0,0)" xlink:href="#ah"/><use transform="matrix(0.010850694444444444,0,0,0.010850694444444444,16.57986111111111,0)" xlink:href="#R"/><use transform="matrix(0.010850694444444444,0,0,0.010850694444444444,24.94574652777778,0)" xlink:href="#Y"/><use transform="matrix(0.010850694444444444,0,0,0.010850694444444444,37.424045138888886,0)" xlink:href="#ai"/><use transform="matrix(0.010850694444444444,0,0,0.010850694444444444,45.30164930555556,0)" xlink:href="#Y"/><use transform="matrix(0.010850694444444444,0,0,0.010850694444444444,57.77994791666667,0)" xlink:href="#S"/><use transform="matrix(0.010850694444444444,0,0,0.010850694444444444,70.90928819444444,0)" xlink:href="#Y"/></g><path d="M338-670V0H158v-1490h180v566c73-149 190-208 336-208 226 0 379 139 379 422V0H872v-695c0-172-96-275-252-275-161 0-282 109-282 300" id="aj"/><g id="m"><use transform="matrix(0.010850694444444444,0,0,0.010850694444444444,0,0)" xlink:href="#X"/><use transform="matrix(0.010850694444444444,0,0,0.010850694444444444,13.606770833333332,0)" xlink:href="#Y"/><use transform="matrix(0.010850694444444444,0,0,0.010850694444444444,26.085069444444443,0)" xlink:href="#U"/><use transform="matrix(0.010850694444444444,0,0,0.010850694444444444,37.814670138888886,0)" xlink:href="#aj"/><use transform="matrix(0.010850694444444444,0,0,0.010850694444444444,50.95486111111111,0)" xlink:href="#P"/><use transform="matrix(0.010850694444444444,0,0,0.010850694444444444,64.56163194444444,0)" xlink:href="#ac"/><use transform="matrix(0.010850694444444444,0,0,0.010850694444444444,78.1032986111111,0)" xlink:href="#Y"/><use transform="matrix(0.010850694444444444,0,0,0.010850694444444444,90.58159722222221,0)" xlink:href="#R"/><use transform="matrix(0.010850694444444444,0,0,0.010850694444444444,98.57855902777777,0)" xlink:href="#X"/><use transform="matrix(0.010850694444444444,0,0,0.010850694444444444,112.1853298611111,0)" xlink:href="#U"/></g><path d="M783 20c-382 0-661-292-661-764 0-473 279-766 661-766 302 0 548 182 601 489h-190c-42-204-217-313-411-313-268 0-476 208-476 590 0 381 209 588 476 588 195 0 369-110 411-313h190c-52 303-296 489-601 489" id="ak"/><g id="n"><use transform="matrix(0.010850694444444444,0,0,0.010850694444444444,0,0)" xlink:href="#ak"/><use transform="matrix(0.010850694444444444,0,0,0.010850694444444444,16.23263888888889,0)" xlink:href="#ac"/><use transform="matrix(0.010850694444444444,0,0,0.010850694444444444,29.557291666666664,0)" xlink:href="#S"/><use transform="matrix(0.010850694444444444,0,0,0.010850694444444444,42.68663194444444,0)" xlink:href="#T"/><use transform="matrix(0.010850694444444444,0,0,0.010850694444444444,49.95659722222222,0)" xlink:href="#R"/><use transform="matrix(0.010850694444444444,0,0,0.010850694444444444,57.95355902777778,0)" xlink:href="#ac"/><use transform="matrix(0.010850694444444444,0,0,0.010850694444444444,71.27821180555554,0)" xlink:href="#W"/></g><path d="M180 0v-1490h510c348 0 508 209 508 474 0 266-160 477-507 477H370V0H180zm190-706h312c236 0 327-133 327-310 0-176-91-307-329-307H370v617" id="al"/><g id="o"><use transform="matrix(0.010850694444444444,0,0,0.010850694444444444,0,0)" xlink:href="#al"/><use transform="matrix(0.010850694444444444,0,0,0.010850694444444444,14.192708333333332,0)" xlink:href="#W"/><use transform="matrix(0.010850694444444444,0,0,0.010850694444444444,19.57465277777778,0)" xlink:href="#Y"/><use transform="matrix(0.010850694444444444,0,0,0.010850694444444444,32.052951388888886,0)" xlink:href="#S"/><use transform="matrix(0.010850694444444444,0,0,0.010850694444444444,45.182291666666664,0)" xlink:href="#Q"/></g><g id="p"><use transform="matrix(0.010850694444444444,0,0,0.010850694444444444,0,0)" xlink:href="#af"/><use transform="matrix(0.010850694444444444,0,0,0.010850694444444444,12.489149305555555,0)" xlink:href="#ag"/><use transform="matrix(0.010850694444444444,0,0,0.010850694444444444,17.87109375,0)" xlink:href="#Y"/></g><g id="q"><use transform="matrix(0.010850694444444444,0,0,0.010850694444444444,0,0)" xlink:href="#ak"/><use transform="matrix(0.010850694444444444,0,0,0.010850694444444444,16.23263888888889,0)" xlink:href="#O"/><use transform="matrix(0.010850694444444444,0,0,0.010850694444444444,29.37282986111111,0)" xlink:href="#U"/><use transform="matrix(0.010850694444444444,0,0,0.010850694444444444,41.10243055555556,0)" xlink:href="#T"/><use transform="matrix(0.010850694444444444,0,0,0.010850694444444444,48.15538194444445,0)" xlink:href="#ac"/><use transform="matrix(0.010850694444444444,0,0,0.010850694444444444,61.48003472222223,0)" xlink:href="#ad"/></g><path d="M180 0v-1490h270l367 940c28 72 75 218 110 339 35-117 81-264 110-339l362-940h271V0h-187c2-448-5-837 7-1287-157 497-311 829-483 1287H842C666-458 514-784 354-1284c12 438 5 843 7 1284H180" id="am"/><g id="r"><use transform="matrix(0.010850694444444444,0,0,0.010850694444444444,0,0)" xlink:href="#am"/><use transform="matrix(0.010850694444444444,0,0,0.010850694444444444,20.07378472222222,0)" xlink:href="#Q"/><use transform="matrix(0.010850694444444444,0,0,0.010850694444444444,33.029513888888886,0)" xlink:href="#T"/><use transform="matrix(0.010850694444444444,0,0,0.010850694444444444,40.299479166666664,0)" xlink:href="#R"/><use transform="matrix(0.010850694444444444,0,0,0.010850694444444444,49.01258680555556,0)" xlink:href="#ag"/><use transform="matrix(0.010850694444444444,0,0,0.010850694444444444,54.394531249999986,0)" xlink:href="#V"/><use transform="matrix(0.010850694444444444,0,0,0.010850694444444444,67.08984375,0)" xlink:href="#U"/></g><path d="M52 0l541-1490h220L1361 0h-200l-149-416H398L254 0H52zm404-582h497c-103-290-145-390-251-756-108 377-145 460-246 756" id="an"/><path d="M370-1490V0H180v-1490h190" id="ao"/><g id="s"><use transform="matrix(0.010850694444444444,0,0,0.010850694444444444,0,0)" xlink:href="#an"/><use transform="matrix(0.010850694444444444,0,0,0.010850694444444444,15.33203125,0)" xlink:href="#al"/><use transform="matrix(0.010850694444444444,0,0,0.010850694444444444,29.524739583333332,0)" xlink:href="#ao"/></g><g id="t"><use transform="matrix(0.010850694444444444,0,0,0.010850694444444444,0,0)" xlink:href="#N"/><use transform="matrix(0.010850694444444444,0,0,0.010850694444444444,14.930555555555555,0)" xlink:href="#Y"/><use transform="matrix(0.010850694444444444,0,0,0.010850694444444444,27.408854166666664,0)" xlink:href="#R"/><use transform="matrix(0.010850694444444444,0,0,0.010850694444444444,36.12196180555555,0)" xlink:href="#ad"/><use transform="matrix(0.010850694444444444,0,0,0.010850694444444444,55.588107638888886,0)" xlink:href="#Y"/><use transform="matrix(0.010850694444444444,0,0,0.010850694444444444,68.06640625,0)" xlink:href="#S"/></g><path d="M645 0H180v-1490h484c435 0 692 280 692 742 0 466-257 748-711 748zM370-168h263c363 0 539-218 539-580 0-358-176-574-521-574H370v1154" id="ap"/><g id="u"><use transform="matrix(0.010850694444444444,0,0,0.010850694444444444,0,0)" xlink:href="#ap"/><use transform="matrix(0.010850694444444444,0,0,0.010850694444444444,16.03732638888889,0)" xlink:href="#Q"/><use transform="matrix(0.010850694444444444,0,0,0.010850694444444444,28.559027777777775,0)" xlink:href="#af"/><use transform="matrix(0.010850694444444444,0,0,0.010850694444444444,40.61414930555556,0)" xlink:href="#Q"/><use transform="matrix(0.010850694444444444,0,0,0.010850694444444444,53.56987847222222,0)" xlink:href="#W"/><use transform="matrix(0.010850694444444444,0,0,0.010850694444444444,58.951822916666664,0)" xlink:href="#ac"/><use transform="matrix(0.010850694444444444,0,0,0.010850694444444444,72.27647569444444,0)" xlink:href="#ab"/><use transform="matrix(0.010850694444444444,0,0,0.010850694444444444,85.88324652777777,0)" xlink:href="#Q"/><use transform="matrix(0.010850694444444444,0,0,0.010850694444444444,98.83897569444444,0)" xlink:href="#R"/></g><g id="v"><use transform="matrix(0.010850694444444444,0,0,0.010850694444444444,0,0)" xlink:href="#N"/><use transform="matrix(0.010850694444444444,0,0,0.010850694444444444,15.277777777777777,0)" xlink:href="#ag"/><use transform="matrix(0.010850694444444444,0,0,0.010850694444444444,20.65972222222222,0)" xlink:href="#T"/></g><g id="w"><use transform="matrix(0.010850694444444444,0,0,0.010850694444444444,0,0)" xlink:href="#N"/><use transform="matrix(0.010850694444444444,0,0,0.010850694444444444,14.930555555555555,0)" xlink:href="#Y"/><use transform="matrix(0.010850694444444444,0,0,0.010850694444444444,27.408854166666664,0)" xlink:href="#R"/><use transform="matrix(0.010850694444444444,0,0,0.010850694444444444,36.12196180555555,0)" xlink:href="#ad"/><use transform="matrix(0.010850694444444444,0,0,0.010850694444444444,55.588107638888886,0)" xlink:href="#Y"/><use transform="matrix(0.010850694444444444,0,0,0.010850694444444444,68.06640625,0)" xlink:href="#S"/></g><g id="x"><use transform="matrix(0.010850694444444444,0,0,0.010850694444444444,0,0)" xlink:href="#ab"/><use transform="matrix(0.010850694444444444,0,0,0.010850694444444444,13.606770833333332,0)" xlink:href="#W"/><use transform="matrix(0.010850694444444444,0,0,0.010850694444444444,18.98871527777778,0)" xlink:href="#Y"/><use transform="matrix(0.010850694444444444,0,0,0.010850694444444444,31.46701388888889,0)" xlink:href="#T"/><use transform="matrix(0.010850694444444444,0,0,0.010850694444444444,38.19444444444444,0)" xlink:href="#ai"/><use transform="matrix(0.010850694444444444,0,0,0.010850694444444444,45.76822916666667,0)" xlink:href="#ac"/><use transform="matrix(0.010850694444444444,0,0,0.010850694444444444,59.09288194444445,0)" xlink:href="#R"/><use transform="matrix(0.010850694444444444,0,0,0.010850694444444444,67.80598958333334,0)" xlink:href="#ad"/></g><path d="M409 0L70-1118h191c89 329 165 560 243 925 75-353 154-601 240-925h192c85 325 161 564 235 922 77-354 157-598 244-922h191L1267 0h-179c-86-307-176-590-250-913C763-588 675-308 588 0H409" id="aq"/><g id="y"><use transform="matrix(0.010850694444444444,0,0,0.010850694444444444,0,0)" xlink:href="#al"/><use transform="matrix(0.010850694444444444,0,0,0.010850694444444444,14.073350694444445,0)" xlink:href="#ac"/><use transform="matrix(0.010850694444444444,0,0,0.010850694444444444,26.99652777777778,0)" xlink:href="#aq"/><use transform="matrix(0.010850694444444444,0,0,0.010850694444444444,44.78081597222222,0)" xlink:href="#Q"/><use transform="matrix(0.010850694444444444,0,0,0.010850694444444444,57.736545138888886,0)" xlink:href="#R"/></g><g id="z"><use transform="matrix(0.010850694444444444,0,0,0.010850694444444444,0,0)" xlink:href="#an"/><use transform="matrix(0.010850694444444444,0,0,0.010850694444444444,15.33203125,0)" xlink:href="#S"/><use transform="matrix(0.010850694444444444,0,0,0.010850694444444444,28.461371527777775,0)" xlink:href="#Y"/><use transform="matrix(0.010850694444444444,0,0,0.010850694444444444,40.939670138888886,0)" xlink:href="#W"/><use transform="matrix(0.010850694444444444,0,0,0.010850694444444444,46.43012152777778,0)" xlink:href="#ae"/><use transform="matrix(0.010850694444444444,0,0,0.010850694444444444,59.244791666666664,0)" xlink:href="#T"/><use transform="matrix(0.010850694444444444,0,0,0.010850694444444444,66.51475694444444,0)" xlink:href="#ag"/><use transform="matrix(0.010850694444444444,0,0,0.010850694444444444,71.89670138888889,0)" xlink:href="#V"/><use transform="matrix(0.010850694444444444,0,0,0.010850694444444444,84.59201388888889,0)" xlink:href="#U"/></g><path fill="#333" d="M115 0v-183l604-853c49-68 106-137 165-205-253 8-513 2-772 4v-253h1133v184L652-468c-53 73-113 147-176 220 253-10 513-3 772-5V0H115" id="ar"/><path fill="#333" d="M633 22C291 22 81-200 81-553c0-345 210-579 537-579 292 0 525 185 525 567v84H378c7 183 109 277 260 277 105 0 184-46 216-132l272 51C1071-99 893 22 633 22zM380-669h474c-15-146-94-237-233-237-143 0-229 99-241 237" id="as"/><path fill="#333" d="M128 0v-1118h290v195h12c54-169 184-238 367-200v268c-27-8-86-15-130-15-138 0-239 95-239 234V0H128" id="at"/><path fill="#333" d="M628 22C291 22 81-210 81-554c0-346 210-578 547-578 336 0 547 232 547 578 0 344-211 576-547 576zm0-236c160 0 242-146 242-341 0-197-82-341-242-341S387-753 387-555c0 195 81 341 241 341" id="au"/><path fill="#333" d="M135 0v-1490h468l242 684c30 94 76 293 111 455 34-161 80-360 110-455l238-684h470V0h-307c0-447-3-765 11-1227-122 503-246 788-395 1227H826C676-435 552-717 427-1215c15 453 11 775 11 1215H135" id="av"/><path fill="#333" d="M789 20C394 20 94-260 94-744c0-487 300-766 695-766s695 279 695 766c0 264-89 467-233 597l215 271h-285L1058-29C976 3 886 20 789 20zm-94-532h261l108 139c70-83 110-208 110-371 0-321-154-495-385-495s-385 175-385 495c0 356 184 537 481 482" id="aw"/><g id="A"><use transform="matrix(0.008680555555555556,0,0,0.008680555555555556,0,0)" xlink:href="#ar"/><use transform="matrix(0.008680555555555556,0,0,0.008680555555555556,11.805555555555555,0)" xlink:href="#as"/><use transform="matrix(0.008680555555555556,0,0,0.008680555555555556,22.395833333333336,0)" xlink:href="#at"/><use transform="matrix(0.008680555555555556,0,0,0.008680555555555556,29.201388888888893,0)" xlink:href="#au"/><use transform="matrix(0.008680555555555556,0,0,0.008680555555555556,40.10416666666667,0)" xlink:href="#av"/><use transform="matrix(0.008680555555555556,0,0,0.008680555555555556,56.66666666666667,0)" xlink:href="#aw"/></g><path fill="#333" d="M684 20C381 20 94-164 94-710c0-501 235-800 601-800 293 0 496 188 526 433H921c-25-105-108-170-226-170-197 0-301 182-301 476h10c67-130 211-208 374-208 263 0 459 201 459 481 0 301-224 518-553 518zm-2-242c147 0 258-116 258-268 0-150-108-266-256-266-146 0-259 121-259 267 0 147 109 267 257 267" id="ax"/><path fill="#333" d="M690 20C314 20 94-261 94-744c0-482 221-766 596-766 376 0 597 284 597 766 0 483-219 764-597 764zm0-253c184 0 286-184 286-511 0-328-102-514-286-514-183 0-285 187-285 514s101 511 285 511" id="ay"/><g id="B"><use transform="matrix(0.008680555555555556,0,0,0.008680555555555556,0,0)" xlink:href="#ax"/><use transform="matrix(0.008680555555555556,0,0,0.008680555555555556,11.54513888888889,0)" xlink:href="#ay"/></g><path fill="#333" d="M572 22C302 22 117-98 78-306l279-48c29 105 101 156 224 156 114 0 185-48 185-115 0-118-228-130-337-155-215-49-322-150-322-317 0-215 187-347 470-347 265 0 424 116 466 298l-266 47c-24-76-87-130-196-130-98 0-174 46-174 113 0 56 38 95 144 117l201 40c216 44 320 143 320 302 0 220-207 367-500 367" id="az"/><path fill="#333" d="M440 22C227 22 68-92 68-313c0-250 202-322 422-343 195-21 271-24 271-105 0-95-63-149-175-149-116 0-187 57-211 129l-275-46c57-194 237-305 487-305 240 0 474 108 474 379V0H777v-155h-10C713-51 605 22 440 22zm85-211c140 0 238-93 238-211v-121c-37 26-156 42-222 51-111 16-185 59-185 149 0 87 70 132 169 132" id="aA"/><path fill="#333" d="M128 0v-1118h278l12 217c60-163 185-234 319-234 143 0 236 81 288 251 63-172 205-251 359-251 205 0 357 138 357 381V0h-301v-697c0-126-76-187-177-187-114 0-184 79-184 196V0H789v-705c0-109-72-179-174-179-106 0-187 74-187 208V0H128" id="aB"/><path fill="#333" d="M128 418v-1536h295v188h14c41-89 129-202 319-202 248 0 453 193 453 575 0 372-197 576-455 576-183 0-275-108-317-198h-9v597H128zm534-640c156 0 240-139 240-336 0-196-83-334-240-334-154 0-241 131-241 334 0 202 88 336 241 336" id="aC"/><path fill="#333" d="M428-1490V0H128v-1490h300" id="aD"/><g id="C"><use transform="matrix(0.008680555555555556,0,0,0.008680555555555556,0,0)" xlink:href="#az"/><use transform="matrix(0.008680555555555556,0,0,0.008680555555555556,9.956597222222223,0)" xlink:href="#aA"/><use transform="matrix(0.008680555555555556,0,0,0.008680555555555556,20.27777777777778,0)" xlink:href="#aB"/><use transform="matrix(0.008680555555555556,0,0,0.008680555555555556,36.501736111111114,0)" xlink:href="#aC"/><use transform="matrix(0.008680555555555556,0,0,0.008680555555555556,47.708333333333336,0)" xlink:href="#aD"/><use transform="matrix(0.008680555555555556,0,0,0.008680555555555556,52.52604166666667,0)" xlink:href="#as"/><use transform="matrix(0.008680555555555556,0,0,0.008680555555555556,63.11631944444445,0)" xlink:href="#az"/></g><g id="D"><use transform="matrix(0.008680555555555556,0,0,0.008680555555555556,0,0)" xlink:href="#aC"/><use transform="matrix(0.008680555555555556,0,0,0.008680555555555556,11.206597222222223,0)" xlink:href="#as"/><use transform="matrix(0.008680555555555556,0,0,0.008680555555555556,21.796875,0)" xlink:href="#at"/></g><path fill="#333" d="M628 22C291 22 81-210 81-554c0-346 210-578 547-578 265 0 455 142 497 372l-279 52c-25-116-99-188-215-188-160 0-244 139-244 341 0 200 84 341 244 341 116 0 193-74 217-195l279 51C1085-123 896 22 628 22" id="aE"/><path fill="#333" d="M428-647V0H128v-1118h283l4 231c63-156 176-245 348-245 232 0 384 159 384 421V0H847v-659c0-139-76-222-202-222-128 0-217 86-217 234" id="aF"/><path fill="#333" d="M537 19C279 19 81-185 81-557c0-382 206-575 454-575 190 0 278 113 318 202h10v-560h300V0H868v-179h-15C812-89 719 19 537 19zm92-241c153 0 240-134 240-336 0-203-86-334-240-334-158 0-240 138-240 334 0 197 84 336 240 336" id="aG"/><g id="E"><use transform="matrix(0.008680555555555556,0,0,0.008680555555555556,0,0)" xlink:href="#az"/><use transform="matrix(0.008680555555555556,0,0,0.008680555555555556,9.956597222222223,0)" xlink:href="#as"/><use transform="matrix(0.008680555555555556,0,0,0.008680555555555556,20.546875,0)" xlink:href="#aE"/><use transform="matrix(0.008680555555555556,0,0,0.008680555555555556,31.006944444444443,0)" xlink:href="#au"/><use transform="matrix(0.008680555555555556,0,0,0.008680555555555556,41.90972222222222,0)" xlink:href="#aF"/><use transform="matrix(0.008680555555555556,0,0,0.008680555555555556,52.97743055555556,0)" xlink:href="#aG"/></g><path fill="#333" d="M768-1560L288 224H28l480-1784h260" id="aH"/><path fill="#333" d="M683-1118v229H474v562c0 71 29 104 102 104 23 0 73-7 95-13l43 225C647 9 580 16 520 16 296 16 174-96 174-301v-588H20v-229h154v-266h300v266h209" id="aI"/><path fill="#333" d="M128 0v-1118h300V0H128zm150-1264c-91 0-165-68-165-154 0-85 74-154 165-154 90 0 165 69 165 154 0 86-75 154-165 154" id="aJ"/><g id="F"><use transform="matrix(0.008680555555555556,0,0,0.008680555555555556,0,0)" xlink:href="#aH"/><use transform="matrix(0.008680555555555556,0,0,0.008680555555555556,6.901041666666667,0)" xlink:href="#aB"/><use transform="matrix(0.008680555555555556,0,0,0.008680555555555556,23.125000000000004,0)" xlink:href="#as"/><use transform="matrix(0.008680555555555556,0,0,0.008680555555555556,33.715277777777786,0)" xlink:href="#aI"/><use transform="matrix(0.008680555555555556,0,0,0.008680555555555556,40.22569444444444,0)" xlink:href="#at"/><use transform="matrix(0.008680555555555556,0,0,0.008680555555555556,47.59548611111112,0)" xlink:href="#aJ"/><use transform="matrix(0.008680555555555556,0,0,0.008680555555555556,52.41319444444446,0)" xlink:href="#aE"/><use transform="matrix(0.008680555555555556,0,0,0.008680555555555556,62.8732638888889,0)" xlink:href="#az"/></g><path fill="#333" d="M749-1490V0H444v-1221h-10L93-980v-279l329-231h327" id="aK"/><use transform="matrix(0.008680555555555556,0,0,0.008680555555555556,0,0)" xlink:href="#aK" id="G"/><g id="H"><use transform="matrix(0.008680555555555556,0,0,0.008680555555555556,0,0)" xlink:href="#az"/><use transform="matrix(0.008680555555555556,0,0,0.008680555555555556,9.956597222222223,0)" xlink:href="#aA"/><use transform="matrix(0.008680555555555556,0,0,0.008680555555555556,20.27777777777778,0)" xlink:href="#aB"/><use transform="matrix(0.008680555555555556,0,0,0.008680555555555556,36.501736111111114,0)" xlink:href="#aC"/><use transform="matrix(0.008680555555555556,0,0,0.008680555555555556,47.708333333333336,0)" xlink:href="#aD"/><use transform="matrix(0.008680555555555556,0,0,0.008680555555555556,52.52604166666667,0)" xlink:href="#as"/></g><g id="I"><use transform="matrix(0.008680555555555556,0,0,0.008680555555555556,0,0)" xlink:href="#aC"/><use transform="matrix(0.008680555555555556,0,0,0.008680555555555556,11.206597222222223,0)" xlink:href="#as"/><use transform="matrix(0.008680555555555556,0,0,0.008680555555555556,21.796875,0)" xlink:href="#at"/></g><g id="J"><use transform="matrix(0.008680555555555556,0,0,0.008680555555555556,0,0)" xlink:href="#az"/><use transform="matrix(0.008680555555555556,0,0,0.008680555555555556,9.956597222222223,0)" xlink:href="#as"/><use transform="matrix(0.008680555555555556,0,0,0.008680555555555556,20.546875,0)" xlink:href="#aE"/><use transform="matrix(0.008680555555555556,0,0,0.008680555555555556,31.006944444444443,0)" xlink:href="#au"/><use transform="matrix(0.008680555555555556,0,0,0.008680555555555556,41.90972222222222,0)" xlink:href="#aF"/><use transform="matrix(0.008680555555555556,0,0,0.008680555555555556,52.97743055555556,0)" xlink:href="#aG"/></g><path fill="#333" d="M567 20C257 20 68-148 68-448v-87h305v92c0 143 75 217 194 217s193-74 193-218v-1046h302v1041c0 301-188 469-495 469" id="aL"/><path fill="#333" d="M681 22C323 22 94-145 85-462h297c10 151 131 226 296 226 163 0 271-77 271-190 0-102-95-149-257-189l-164-41c-252-61-403-188-403-405 0-269 236-449 560-449 330 0 546 183 551 445H941c-11-119-106-188-259-188-156 0-244 72-244 172-3 156 226 185 373 221 250 61 445 186 445 436 0 271-213 446-575 446" id="aM"/><path fill="#333" d="M789 20C394 20 94-260 94-744c0-487 300-766 695-766s695 279 695 766c0 485-300 764-695 764zm0-271c231 0 385-174 385-493 0-321-154-495-385-495s-385 175-385 495c0 319 154 493 385 493" id="aN"/><path fill="#333" d="M135 0v-1490h340l471 754c59 97 122 210 187 365-32-387-14-721-19-1119h312V0h-341C855-382 627-689 427-1113c32 420 16 695 20 1113H135" id="aO"/><g id="K"><use transform="matrix(0.008680555555555556,0,0,0.008680555555555556,0,0)" xlink:href="#aL"/><use transform="matrix(0.008680555555555556,0,0,0.008680555555555556,10.390625,0)" xlink:href="#aM"/><use transform="matrix(0.008680555555555556,0,0,0.008680555555555556,22.03125,0)" xlink:href="#aN"/><use transform="matrix(0.008680555555555556,0,0,0.008680555555555556,35.72916666666667,0)" xlink:href="#aO"/></g><path fill="#333" d="M361 0L31-1118h315c68 295 127 523 188 845 63-317 128-551 199-845h276c71 296 131 525 196 846 57-321 119-552 186-846h319L1378 0h-305c-73-261-148-486-204-771C813-484 740-261 666 0H361" id="aP"/><g id="L"><use transform="matrix(0.008680555555555556,0,0,0.008680555555555556,0,0)" xlink:href="#at"/><use transform="matrix(0.008680555555555556,0,0,0.008680555555555556,6.805555555555556,0)" xlink:href="#au"/><use transform="matrix(0.008680555555555556,0,0,0.008680555555555556,17.46527777777778,0)" xlink:href="#aP"/><use transform="matrix(0.008680555555555556,0,0,0.008680555555555556,32.578125,0)" xlink:href="#az"/></g><path d="M98-1322v-168h1126v168H757V0H567v-1322H98" id="aQ"/><path d="M180 0v-1490h528c311 0 458 177 458 395 0 191-114 278-244 313v14c139 9 302 137 302 371 0 225-148 397-499 397H180zm190-168h350c232 0 321-102 321-231 0-149-120-277-311-277H370v508zm0-668h328c160 0 286-101 286-255 0-129-87-231-280-231H370v486" id="aR"/><g id="M"><use transform="matrix(0.010850694444444444,0,0,0.010850694444444444,0,0)" xlink:href="#aQ"/><use transform="matrix(0.010850694444444444,0,0,0.010850694444444444,14.344618055555555,0)" xlink:href="#ag"/><use transform="matrix(0.010850694444444444,0,0,0.010850694444444444,19.7265625,0)" xlink:href="#ad"/><use transform="matrix(0.010850694444444444,0,0,0.010850694444444444,39.19270833333333,0)" xlink:href="#Q"/><use transform="matrix(0.010850694444444444,0,0,0.010850694444444444,52.148437499999986,0)" xlink:href="#U"/><use transform="matrix(0.010850694444444444,0,0,0.010850694444444444,63.878038194444436,0)" xlink:href="#V"/><use transform="matrix(0.010850694444444444,0,0,0.010850694444444444,76.79036458333333,0)" xlink:href="#Y"/><use transform="matrix(0.010850694444444444,0,0,0.010850694444444444,89.26866319444444,0)" xlink:href="#W"/><use transform="matrix(0.010850694444444444,0,0,0.010850694444444444,94.65060763888889,0)" xlink:href="#Q"/><use transform="matrix(0.010850694444444444,0,0,0.010850694444444444,107.60633680555556,0)" xlink:href="#ap"/><use transform="matrix(0.010850694444444444,0,0,0.010850694444444444,123.64366319444444,0)" xlink:href="#aR"/></g></defs></g></svg>